<svg xmlns="http://www.w3.org/2000/svg" width="20" height="20" viewBox="0 0 20 20"><g transform="translate(-5.953)"><g transform="translate(5.953)"><path d="M13.208,0H7.44A1.455,1.455,0,0,0,5.953,1.405V7.173A1.511,1.511,0,0,0,7.44,8.643h5.768A1.426,1.426,0,0,0,14.6,7.173V1.405A1.37,1.37,0,0,0,13.208,0Zm.428,7.173a.467.467,0,0,1-.428.51H7.44a.551.551,0,0,1-.527-.51V1.405A.5.5,0,0,1,7.44.96h5.768a.411.411,0,0,1,.428.445Z" transform="translate(-5.953)"/></g><g transform="translate(17.309)"><path d="M298.976,0h-5.768a1.455,1.455,0,0,0-1.487,1.405V7.173a1.511,1.511,0,0,0,1.487,1.47h5.768a1.426,1.426,0,0,0,1.388-1.47V1.405A1.37,1.37,0,0,0,298.976,0Zm.428,7.173a.467.467,0,0,1-.428.51h-5.768a.551.551,0,0,1-.527-.51V1.405a.5.5,0,0,1,.527-.445h5.768a.411.411,0,0,1,.428.445Z" transform="translate(-291.721)"/></g><g transform="translate(17.309 11.357)"><path d="M298.976,297.674h-5.768a1.455,1.455,0,0,0-1.487,1.405v5.768a1.511,1.511,0,0,0,1.487,1.47h5.768a1.426,1.426,0,0,0,1.388-1.47v-5.768A1.37,1.37,0,0,0,298.976,297.674Zm.428,7.173a.467.467,0,0,1-.428.51h-5.768a.551.551,0,0,1-.527-.51v-5.768a.5.5,0,0,1,.527-.445h5.768a.411.411,0,0,1,.428.445Z" transform="translate(-291.721 -297.674)"/></g><path d="M2.228,5.4a3.413,3.413,0,1,1,.74.74L.74,8.372,0,7.632,2.228,5.4Zm2.742.352A2.354,2.354,0,1,0,2.616,3.4,2.357,2.357,0,0,0,4.97,5.756Z" transform="translate(5.953 11.626)"/></g></svg>