<svg xmlns="http://www.w3.org/2000/svg" xmlns:xlink="http://www.w3.org/1999/xlink" width="18" height="18" viewBox="0 0 18 18"><defs><clipPath id="a"><rect width="18" height="18" fill="#272727"/></clipPath></defs><g clip-path="url(#a)"><g transform="translate(2.167)"><path d="M16.013,0H2.95a.3.3,0,0,0-.3.3V17.7a.3.3,0,0,0,.3.3H16.013a.3.3,0,0,0,.3-.3V.3A.3.3,0,0,0,16.013,0Zm-.3,3.351H3.251V2.97H7.365a.783.783,0,0,0,.782-.782V.6h7.565V3.351ZM3.251.6H7.746V2.188a.381.381,0,0,1-.381.381H3.251Zm0,16.8V3.753H15.712V17.4H3.251Z" transform="translate(-2.649)" fill="#272727"/><path d="M16.984,17.9H14.573a.517.517,0,0,0-.516.516v1.422a.517.517,0,0,0,.516.516h2.411a.517.517,0,0,0,.516-.516V18.413A.516.516,0,0,0,16.984,17.9Zm.115,1.938a.115.115,0,0,1-.115.115H14.573a.115.115,0,0,1-.115-.115V18.413a.115.115,0,0,1,.115-.115h2.411a.115.115,0,0,1,.115.115Z" transform="translate(-4.723 -3.254)" fill="#272727"/><path d="M14.732,10.595a4.8,4.8,0,1,0-4.8,4.8,4.8,4.8,0,0,0,4.8-4.8Zm-4.8,4.4a4.4,4.4,0,1,1,4.4-4.4A4.4,4.4,0,0,1,9.934,14.992Z" transform="translate(-3.101 -1.054)" fill="#272727"/><path d="M12.886,9.045a3.222,3.222,0,1,0,0,3.8.2.2,0,0,0-.007-.246,2.6,2.6,0,0,1,0-3.307.2.2,0,0,0,.007-.246Zm-.826,2.913a2.045,2.045,0,1,1,0-2.026,2.986,2.986,0,0,0,0,2.026Zm.2-2.461a2.446,2.446,0,1,0,0,2.895,2.987,2.987,0,0,0,.214.335,2.821,2.821,0,1,1,0-3.564,2.992,2.992,0,0,0-.214.335Z" transform="translate(-3.451 -1.404)" fill="#272727"/><path d="M16.143,3.253A1.013,1.013,0,1,0,15.129,2.24,1.015,1.015,0,0,0,16.143,3.253Zm0-1.625a.612.612,0,1,1-.612.612A.613.613,0,0,1,16.143,1.628Z" transform="translate(-4.918 -0.223)" fill="#272727"/><path d="M6.751,1.354H4.885a.2.2,0,0,0-.2.2V1.7a.762.762,0,0,0,.761.761h.745A.762.762,0,0,0,6.952,1.7V1.555a.2.2,0,0,0-.2-.2Zm-.56.708H5.446a.36.36,0,0,1-.356-.307H6.547A.36.36,0,0,1,6.191,2.062Z" transform="translate(-3.019 -0.246)" fill="#272727"/><path d="M10.1,1.861h1.244a.2.2,0,1,0,0-.4H10.1a.2.2,0,0,0,0,.4Z" transform="translate(-3.967 -0.265)" fill="#272727"/><path d="M12.751,1.861H14a.2.2,0,0,0,0-.4H12.751a.2.2,0,1,0,0,.4Z" transform="translate(-4.449 -0.265)" fill="#272727"/><path d="M10.1,2.621h1.244a.2.2,0,1,0,0-.4H10.1a.2.2,0,0,0,0,.4Z" transform="translate(-3.967 -0.404)" fill="#272727"/><path d="M12.751,2.621H14a.2.2,0,0,0,0-.4H12.751a.2.2,0,1,0,0,.4Z" transform="translate(-4.449 -0.404)" fill="#272727"/><path d="M11.346,2.98H10.1a.2.2,0,0,0,0,.4h1.244a.2.2,0,1,0,0-.4Z" transform="translate(-3.967 -0.542)" fill="#272727"/><path d="M12.751,3.381H14a.2.2,0,0,0,0-.4H12.751a.2.2,0,1,0,0,.4Z" transform="translate(-4.449 -0.542)" fill="#272727"/></g></g></svg>