<svg xmlns="http://www.w3.org/2000/svg" width="19" height="19" viewBox="0 0 19 19">
  <path id="Path_380" data-name="Path 380" d="M4.056,3h6.333a1.056,1.056,0,0,1,1.056,1.056v6.333a1.056,1.056,0,0,1-1.056,1.056H4.056A1.056,1.056,0,0,1,3,10.389V4.056A1.056,1.056,0,0,1,4.056,3ZM5.111,5.111V9.333H9.333V5.111ZM4.056,13.556h6.333a1.056,1.056,0,0,1,1.056,1.056v6.333A1.056,1.056,0,0,1,10.389,22H4.056A1.056,1.056,0,0,1,3,20.944V14.611A1.056,1.056,0,0,1,4.056,13.556Zm1.056,2.111v4.222H9.333V15.667ZM14.611,3h6.333A1.056,1.056,0,0,1,22,4.056v6.333a1.056,1.056,0,0,1-1.056,1.056H14.611a1.056,1.056,0,0,1-1.056-1.056V4.056A1.056,1.056,0,0,1,14.611,3Zm1.056,2.111V9.333h4.222V5.111Zm4.222,10.556H14.611a1.056,1.056,0,1,1,0-2.111h6.333A1.056,1.056,0,0,1,22,14.611v6.333A1.056,1.056,0,0,1,20.944,22H14.611a1.056,1.056,0,0,1-1.056-1.056V18.833a1.056,1.056,0,0,1,2.111,0v1.056h4.222Z" transform="translate(-3 -3)" fill="#272727"/>
</svg>
