<svg xmlns="http://www.w3.org/2000/svg" xmlns:xlink="http://www.w3.org/1999/xlink" width="18" height="18" viewBox="0 0 18 18"><defs><clipPath id="a"><rect width="18" height="18" fill="#272727"/></clipPath></defs><g clip-path="url(#a)"><g transform="translate(0 3.486)"><path d="M7.591,10.475a1.2,1.2,0,1,0,1.2,1.2A1.2,1.2,0,0,0,7.591,10.475Zm0,2.026a.826.826,0,1,1,.826-.826A.826.826,0,0,1,7.591,12.5Z" transform="translate(-1.162 -5.39)" fill="#272727"/><path d="M13.875,10.475a1.2,1.2,0,1,0,1.2,1.2A1.2,1.2,0,0,0,13.875,10.475Zm0,2.026a.826.826,0,1,1,.826-.826A.826.826,0,0,1,13.875,12.5Z" transform="translate(-2.304 -5.39)" fill="#272727"/><path d="M3.957,7.631l.417.326a.188.188,0,0,0,.231,0l.417-.326a.188.188,0,0,0,.072-.148V6.831a.188.188,0,0,0-.188-.188H4.073a.188.188,0,0,0-.188.188v.652a.188.188,0,0,0,.072.148Zm.3-.612h.459v.373l-.229.18-.229-.18V7.019Z" transform="translate(-0.706 -4.694)" fill="#272727"/><path d="M5.022,9.624,4.605,9.3a.188.188,0,0,0-.231,0l-.417.326a.188.188,0,0,0-.072.148v.652a.188.188,0,0,0,.188.188h.834a.188.188,0,0,0,.188-.188V9.772a.188.188,0,0,0-.072-.148Zm-.3.612H4.26V9.863l.229-.18.229.18v.373Z" transform="translate(-0.706 -5.169)" fill="#272727"/><path d="M5.144,8.759l.326.417a.188.188,0,0,0,.148.072H6.27a.188.188,0,0,0,.188-.188V8.226a.188.188,0,0,0-.188-.188H5.618a.188.188,0,0,0-.148.072l-.326.417a.188.188,0,0,0,0,.231Zm.566-.345h.373v.459H5.709l-.18-.229Z" transform="translate(-0.928 -4.947)" fill="#272727"/><path d="M3.329,9.248a.188.188,0,0,0,.148-.072L3.8,8.759a.188.188,0,0,0,0-.231l-.326-.417a.188.188,0,0,0-.148-.072H2.677a.188.188,0,0,0-.188.188v.834a.188.188,0,0,0,.188.188h.652Zm-.464-.834h.373l.18.229-.18.229H2.865Z" transform="translate(-0.453 -4.947)" fill="#272727"/><path d="M17.955,12.587,17.1,8.076A2.906,2.906,0,0,0,15.855,5.72l-.084-.865a.655.655,0,0,0-.654-.594h-1.84a.655.655,0,0,0-.654.594l-.072.743h-7.1l-.072-.743a.655.655,0,0,0-.654-.594H2.883a.655.655,0,0,0-.654.594l-.084.865A2.906,2.906,0,0,0,.9,8.076l-.85,4.511A2.22,2.22,0,0,0,.356,14.26a2.321,2.321,0,0,0,1.24.916,2.409,2.409,0,0,0,.724.112,2.182,2.182,0,0,0,2.032-1.344l.811-1.8a2.043,2.043,0,0,0,3.293-1.322h1.09a2.043,2.043,0,0,0,3.293,1.322l.811,1.8a2.181,2.181,0,0,0,2.031,1.344,2.41,2.41,0,0,0,.724-.112,2.321,2.321,0,0,0,1.24-.916,2.22,2.22,0,0,0,.311-1.673ZM16.542,8.107a2.347,2.347,0,0,1-2.934,2.271,2.049,2.049,0,0,0-1.719-1.852,2.345,2.345,0,1,1,4.653-.419Zm-9.86.41A2.9,2.9,0,0,0,5.961,6.16h6.077a2.9,2.9,0,0,0-.721,2.357,2.049,2.049,0,0,0-1.773,1.747H8.455A2.049,2.049,0,0,0,6.682,8.517Zm6.6-3.693h1.84a.094.094,0,0,1,.094.085l.048.492a2.9,2.9,0,0,0-2.124,0l.048-.491a.094.094,0,0,1,.094-.086ZM2.788,4.909a.094.094,0,0,1,.094-.085h1.84a.094.094,0,0,1,.094.085l.048.491a2.9,2.9,0,0,0-2.124,0ZM3.8,5.761A2.345,2.345,0,0,1,6.11,8.526a2.049,2.049,0,0,0-1.718,1.851A2.345,2.345,0,1,1,3.8,5.761Zm.035,7.951a1.655,1.655,0,0,1-2.073.927A1.654,1.654,0,0,1,.6,12.692l.615-3.264a2.908,2.908,0,0,0,3.211,1.52,2.035,2.035,0,0,0,.321.756l-.907,2.009ZM6.43,12.028a1.482,1.482,0,1,1,1.482-1.482A1.484,1.484,0,0,1,6.43,12.028Zm5.141,0a1.482,1.482,0,1,1,1.482-1.482A1.484,1.484,0,0,1,11.57,12.028Zm4.665,2.612a1.654,1.654,0,0,1-2.073-.927L13.255,11.7a2.034,2.034,0,0,0,.321-.756,2.908,2.908,0,0,0,3.211-1.52l.616,3.264a1.654,1.654,0,0,1-1.167,1.948Z" transform="translate(0 -4.26)" fill="#272727"/><path d="M17.193,8.189a.714.714,0,1,0-.714-.714A.715.715,0,0,0,17.193,8.189Zm0-1.054a.339.339,0,1,1-.339.339A.34.34,0,0,1,17.193,7.135Z" transform="translate(-2.996 -4.715)" fill="#272727"/><path d="M17.193,9.416a.714.714,0,1,0,.714.714A.715.715,0,0,0,17.193,9.416Zm0,1.054a.339.339,0,1,1,.339-.339A.34.34,0,0,1,17.193,10.47Z" transform="translate(-2.996 -5.198)" fill="#272727"/><path d="M18.521,8.088a.714.714,0,1,0,.714.714.715.715,0,0,0-.714-.714Zm0,1.054A.339.339,0,1,1,18.86,8.8a.34.34,0,0,1-.339.339Z" transform="translate(-3.238 -4.956)" fill="#272727"/><path d="M16.579,8.8a.714.714,0,1,0-.714.714.715.715,0,0,0,.714-.714Zm-.714.339A.339.339,0,1,1,16.2,8.8.34.34,0,0,1,15.865,9.142Z" transform="translate(-2.755 -4.956)" fill="#272727"/><path d="M9.8,8.778H9.386a.188.188,0,0,0,0,.375H9.8a.188.188,0,0,0,0-.375Z" transform="translate(-1.672 -5.082)" fill="#272727"/><path d="M12.026,9.153h.413a.188.188,0,0,0,0-.375h-.413a.188.188,0,0,0,0,.375Z" transform="translate(-2.152 -5.082)" fill="#272727"/></g></g></svg>