<svg xmlns="http://www.w3.org/2000/svg" xmlns:xlink="http://www.w3.org/1999/xlink" width="18" height="18" viewBox="0 0 18 18"><defs><clipPath id="a"><rect width="18" height="18" fill="#272727"/></clipPath></defs><g clip-path="url(#a)"><g transform="translate(0 1.201)"><path d="M17.651.693l-3.556.593L4.5.035a3.987,3.987,0,1,0,0,7.907l.848-.111.953,5.717a.3.3,0,0,0,.3.251H7.8A1.2,1.2,0,0,1,6.6,15H6a1.2,1.2,0,0,1-1.2-1.2A1.8,1.8,0,0,0,3,12H.3a.3.3,0,0,0,0,.6H3a1.2,1.2,0,0,1,1.2,1.2A1.8,1.8,0,0,0,6,15.6h.6a1.8,1.8,0,0,0,1.8-1.8H9.6a.3.3,0,0,0,.3-.349L9.355,10.2H10.2a.3.3,0,0,0,.3-.3V8.7a.3.3,0,0,0-.3-.3H9.055L8.883,7.371l5.211-.679,1.082.18A.294.294,0,0,0,15.3,6.9c.007,0,.013,0,.02,0l2.33.388a.31.31,0,0,0,.049,0,.3.3,0,0,0,.3-.3v-6a.3.3,0,0,0-.349-.3ZM4.427,7.347a3.387,3.387,0,1,1,0-6.718L13.8,1.852V6.125ZM9.9,9v.6H9.255l-.1-.6Zm-.654,4.2H6.855L5.948,7.754l2.341-.305ZM17.4,6.634l-1.8-.3V3.9a.3.3,0,1,0-.6,0V6.234l-.6-.1V1.843l3-.5Zm0,0" transform="translate(0 -0.001)" fill="#272727"/><path d="M5.568,2.933h-2.7a.3.3,0,1,0,0,.6h2.7a.3.3,0,0,0,0-.6Zm0,0" transform="translate(-0.467 -0.534)" fill="#272727"/><path d="M5.568,4.4h-2.7a.3.3,0,0,0,0,.6h2.7a.3.3,0,0,0,0-.6Zm0,0" transform="translate(-0.467 -0.801)" fill="#272727"/><path d="M5.568,5.866h-2.7a.3.3,0,0,0,0,.6h2.7a.3.3,0,0,0,0-.6Zm0,0" transform="translate(-0.467 -1.067)" fill="#272727"/></g></g></svg>