<svg xmlns="http://www.w3.org/2000/svg" xmlns:xlink="http://www.w3.org/1999/xlink" width="18" height="18" viewBox="0 0 18 18"><defs><clipPath id="a"><rect width="18" height="18" fill="#272727"/></clipPath></defs><g clip-path="url(#a)"><g transform="translate(3.203)"><path d="M14.369,0H5.054a1.141,1.141,0,0,0-1.14,1.14V16.86A1.141,1.141,0,0,0,5.054,18h9.315a1.141,1.141,0,0,0,1.14-1.14V1.14A1.141,1.141,0,0,0,14.369,0ZM4.486,2.864H14.938v11.9H4.486ZM5.054.571h9.315a.569.569,0,0,1,.569.569V2.484H4.486V1.14A.569.569,0,0,1,5.054.571Zm9.315,16.858H5.054a.569.569,0,0,1-.569-.569V15.149H14.938V16.86A.569.569,0,0,1,14.369,17.429Z" transform="translate(-3.914)" fill="#272727"/><path d="M10.792,18.824a.935.935,0,1,0,.935.935A.936.936,0,0,0,10.792,18.824Zm0,1.49a.554.554,0,1,1,.554-.554A.555.555,0,0,1,10.792,20.313Z" transform="translate(-4.995 -3.423)" fill="#272727"/><path d="M9.376,2.132h2.589a.19.19,0,0,0,0-.381H9.376a.19.19,0,0,0,0,.381Z" transform="translate(-4.873 -0.318)" fill="#272727"/><path d="M8.538,2.132A.19.19,0,1,0,8.4,2.077.191.191,0,0,0,8.538,2.132Z" transform="translate(-4.721 -0.318)" fill="#272727"/></g></g></svg>