<svg xmlns="http://www.w3.org/2000/svg" xmlns:xlink="http://www.w3.org/1999/xlink" width="18" height="18" viewBox="0 0 18 18"><defs><clipPath id="a"><rect width="18" height="18" fill="#272727"/></clipPath></defs><g clip-path="url(#a)"><g transform="translate(0 0)"><path d="M15.9,2.4H14.4V.3a.3.3,0,0,0-.1-.227A.306.306,0,0,0,14.056,0L.254,2.1A.3.3,0,0,0,.06,2.58L1.8,4.921V17.7a.3.3,0,0,0,.3.3h12a.3.3,0,0,0,.3-.3V5.4h1.5a.3.3,0,0,1,.3.3v6a.9.9,0,1,0,1.8,0V4.5A2.1,2.1,0,0,0,15.9,2.4Zm-2.1,15H2.4V16.2H13.8Zm0-1.8H2.4v-3H9v.3a1.5,1.5,0,0,0,3,0v-.3h1.8ZM9.6,12.9v-6a.9.9,0,1,1,1.8,0v6a.9.9,0,0,1-1.8,0Zm4.2-.9H12V6.9a1.5,1.5,0,1,0-3,0V12H2.4V4.822a.3.3,0,0,0-.06-.18L.837,2.619l3.534-.555.237.308A2.7,2.7,0,0,0,7.13,3.4l6.67-.953Zm0-10.16L7.045,2.8a2.105,2.105,0,0,1-1.961-.8l-.035-.045L13.8.648V1.84Zm3.6,9.86a.3.3,0,0,1-.6,0v-6a.9.9,0,0,0-.9-.9H14.4V3h1.5a1.5,1.5,0,0,1,1.5,1.5Z" transform="translate(0 0)" fill="#272727"/><path d="M13.3,15.7a.3.3,0,0,0-.3-.3h-.6a.3.3,0,0,0,0,.6H13A.3.3,0,0,0,13.3,15.7Z" transform="translate(-2.2 -2.8)" fill="#272727"/><path d="M12.4,14.533H13a.3.3,0,1,0,0-.6h-.6a.3.3,0,0,0,0,.6Z" transform="translate(-2.2 -2.534)" fill="#272727"/><path d="M12.4,13.066H13a.3.3,0,0,0,0-.6h-.6a.3.3,0,0,0,0,.6Z" transform="translate(-2.2 -2.267)" fill="#272727"/><path d="M12.4,11.6H13a.3.3,0,0,0,0-.6h-.6a.3.3,0,0,0,0,.6Z" transform="translate(-2.2 -2)" fill="#272727"/><path d="M12.4,10.133H13a.3.3,0,1,0,0-.6h-.6a.3.3,0,1,0,0,.6Z" transform="translate(-2.2 -1.734)" fill="#272727"/><path d="M12.4,8.666H13a.3.3,0,0,0,0-.6h-.6a.3.3,0,0,0,0,.6Z" transform="translate(-2.2 -1.467)" fill="#272727"/></g></g></svg>