<svg xmlns="http://www.w3.org/2000/svg" xmlns:xlink="http://www.w3.org/1999/xlink" width="18" height="18" viewBox="0 0 18 18"><defs><clipPath id="a"><rect width="18" height="18" fill="#272727"/></clipPath></defs><g clip-path="url(#a)"><g transform="translate(0 2.351)"><path d="M17.713,2.873H.287A.287.287,0,0,0,0,3.16V14.376a.287.287,0,0,0,.287.287H8.022V15.6H5.955a.287.287,0,1,0,0,.573h6.089a.287.287,0,1,0,0-.573H9.978v-.936h7.735A.287.287,0,0,0,18,14.376V3.16A.287.287,0,0,0,17.713,2.873ZM9.405,15.6h-.81v-.936h.81Zm8.022-1.509H.573V3.446H17.427Z" transform="translate(0 -2.873)" fill="#272727"/><path d="M1.335,13.274H17.081a.191.191,0,0,0,.191-.191V4.208a.191.191,0,0,0-.191-.191H1.335a.191.191,0,0,0-.191.191v8.874A.191.191,0,0,0,1.335,13.274ZM1.527,4.4H16.89v8.492H1.527Z" transform="translate(-0.208 -3.081)" fill="#272727"/><path d="M19.613,15.772h-.841a.191.191,0,0,0,0,.382h.841a.191.191,0,1,0,0-.382Z" transform="translate(-3.378 -5.218)" fill="#272727"/><path d="M11.561,15.772H10.009a.191.191,0,1,0,0,.382h1.551a.191.191,0,0,0,0-.382Z" transform="translate(-1.785 -5.218)" fill="#272727"/><path d="M20.58,15.772a.191.191,0,1,0,.135.056A.192.192,0,0,0,20.58,15.772Z" transform="translate(-3.707 -5.218)" fill="#272727"/></g></g></svg>