<svg xmlns="http://www.w3.org/2000/svg" xmlns:xlink="http://www.w3.org/1999/xlink" width="18" height="18" viewBox="0 0 18 18"><defs><clipPath id="a"><rect width="18" height="18" fill="#272727"/></clipPath></defs><g clip-path="url(#a)"><g transform="translate(0 2.862)"><path d="M16.3,4.557H2.411A.446.446,0,0,0,1.966,5v8.213a.446.446,0,0,0,.445.445H16.3a.445.445,0,0,0,.445-.445V5a.446.446,0,0,0-.445-.445Zm.06,8.658a.06.06,0,0,1-.06.06H2.411a.06.06,0,0,1-.06-.06V5a.06.06,0,0,1,.06-.06H16.3a.06.06,0,0,1,.06.06Z" transform="translate(-0.357 -3.69)" fill="#272727"/><path d="M17.711,13.756h-.452V4.6a1.1,1.1,0,0,0-1.1-1.1H1.842a1.1,1.1,0,0,0-1.1,1.1v9.158H.289A.289.289,0,0,0,0,14.045v.794a.936.936,0,0,0,.935.935h16.13A.936.936,0,0,0,18,14.839v-.794A.289.289,0,0,0,17.711,13.756ZM1.319,4.6a.523.523,0,0,1,.523-.523H16.158a.523.523,0,0,1,.523.523v9.158H1.319V4.6Zm6.833,9.736h1.7v.151a.123.123,0,0,1-.123.123H8.275a.123.123,0,0,1-.123-.123v-.151Zm9.27.5a.358.358,0,0,1-.357.357H.935a.358.358,0,0,1-.357-.357v-.5H7.767v.151a.508.508,0,0,0,.508.508h1.45a.508.508,0,0,0,.508-.508v-.151h7.189v.5Z" transform="translate(0 -3.497)" fill="#272727"/></g></g></svg>