<svg xmlns="http://www.w3.org/2000/svg" xmlns:xlink="http://www.w3.org/1999/xlink" width="18" height="18" viewBox="0 0 18 18"><defs><clipPath id="a"><rect width="18" height="18" fill="#272727"/></clipPath></defs><g clip-path="url(#a)"><g transform="translate(0 2.256)"><path d="M17.688,4.631h-.995V4.006a.208.208,0,0,0-.208-.208H14.112a.208.208,0,0,0-.208.208v.624h-.5L12.9,2.978a.312.312,0,0,0-.3-.22H5.4a.312.312,0,0,0-.3.22L4.594,4.631H4.017V4.006A.208.208,0,0,0,3.809,3.8H3.585V3.07a.208.208,0,0,0-.208-.208H1.869a.208.208,0,0,0-.208.208V3.8H1.436a.208.208,0,0,0-.208.208v.624H.312A.312.312,0,0,0,0,4.943v10.99a.312.312,0,0,0,.312.312H17.688A.312.312,0,0,0,18,15.933V4.943a.312.312,0,0,0-.312-.312ZM9,14.965a3.934,3.934,0,1,1,3.934-3.934A3.938,3.938,0,0,1,9,14.965Zm4.558-3.934a4.558,4.558,0,1,0-7.226,3.694H.624V6.088H17.376v8.638H11.667A4.555,4.555,0,0,0,13.558,11.031Zm.762-6.817h1.957v.416H14.32ZM5.631,3.382h6.737l.384,1.249H5.247l.384-1.249Zm-3.554-.1H3.168V3.8H2.077Zm-.433.937H3.6v.416H1.644ZM17.376,5.255v.416H.624V5.255ZM.624,15.621v-.479H7.031a4.555,4.555,0,0,0,3.939,0h6.406v.479H.624Z" transform="translate(0 -2.758)" fill="#272727"/><path d="M10.3,9.028a3.143,3.143,0,1,0,3.143,3.143A3.147,3.147,0,0,0,10.3,9.028Zm0,5.87a2.727,2.727,0,1,1,2.727-2.727A2.73,2.73,0,0,1,10.3,14.9Z" transform="translate(-1.302 -3.898)" fill="#272727"/><path d="M10.446,9.824a2.492,2.492,0,1,0,2.492,2.492A2.495,2.495,0,0,0,10.446,9.824Zm0,4.568a2.076,2.076,0,1,1,2.076-2.076A2.078,2.078,0,0,1,10.446,14.392Z" transform="translate(-1.446 -4.042)" fill="#272727"/><path d="M19.72,7.033H16.973a.208.208,0,0,0-.208.208V9.164a.208.208,0,0,0,.208.208H19.72a.208.208,0,0,0,.208-.208V7.242A.208.208,0,0,0,19.72,7.033Zm-.208,1.922H17.181V7.45h2.331Z" transform="translate(-3.048 -3.535)" fill="#272727"/><path d="M18.037,8.865h1.007a.208.208,0,0,0,.208-.208V8.039a.208.208,0,0,0-.208-.208H18.037a.208.208,0,0,0-.208.208v.618A.208.208,0,0,0,18.037,8.865Zm.208-.618h.59v.2h-.59Z" transform="translate(-3.242 -3.68)" fill="#272727"/><path d="M3.6,15.717a.926.926,0,1,0,.926-.926A.927.927,0,0,0,3.6,15.717Zm1.436,0a.51.51,0,1,1-.51-.51A.511.511,0,0,1,5.036,15.717Z" transform="translate(-0.655 -4.945)" fill="#272727"/></g></g></svg>