<svg xmlns="http://www.w3.org/2000/svg" width="19.043" height="25" viewBox="0 0 19.043 25"><g transform="translate(-61)"><g transform="translate(61)"><path d="M73.566,19.274c2.364-2.612,5.745-6.9,5.745-10.437a8.789,8.789,0,1,0-17.578,0c0,3.534,3.381,7.824,5.745,10.437C64.94,19.5,61,20.166,61,22.07,61,24.615,67.961,25,70.521,25c2.539,0,9.521-.381,9.521-2.93C80.043,20.166,76.1,19.5,73.566,19.274ZM63.2,8.838a7.324,7.324,0,1,1,14.648,0c0,3.648-4.709,8.934-7.325,11.487C67.915,17.782,63.2,12.489,63.2,8.838Zm7.324,14.7c-2.717,0-7.078-.46-8.024-1.465.9-.955,4.816-1.345,6.274-1.42.724.739,1.213,1.19,1.254,1.227a.733.733,0,0,0,.991,0c.041-.037.53-.488,1.254-1.227,1.468.076,5.383.473,6.275,1.42C77.453,23.23,72.426,23.535,70.521,23.535Zm3.624-10.8,1.465-4.395a.732.732,0,0,0-.695-.964h-1L72.641,4.827a.732.732,0,1,0-1.31.655l.945,1.891h-3.51l.945-1.891a.732.732,0,1,0-1.31-.655L67.129,7.373h-1a.732.732,0,0,0-.695.964L66.9,12.732a.732.732,0,0,0,.695.5h5.859A.732.732,0,0,0,74.146,12.732Zm-6.026-.964-.977-2.93H73.9l-.977,2.93Z" transform="translate(-61)" fill="#08b224"/></g></g></svg>