<svg xmlns="http://www.w3.org/2000/svg" width="22.727" height="22.727" viewBox="0 0 22.727 22.727"><path d="M19.4,0H3.329A3.333,3.333,0,0,0,0,3.329V19.4a3.333,3.333,0,0,0,3.329,3.329H19.4A3.333,3.333,0,0,0,22.727,19.4V3.329A3.333,3.333,0,0,0,19.4,0Zm-7.99,17.312A5.993,5.993,0,1,1,17.4,11.319,6,6,0,0,1,11.408,17.312ZM18.066,6.658a2,2,0,1,1,2-2A2,2,0,0,1,18.066,6.658Zm0,0" fill="#acacbe"/><path d="M392.666,90a.666.666,0,1,0,.666.666A.666.666,0,0,0,392.666,90Zm0,0" transform="translate(-374.599 -86.005)" fill="#acacbe"/><path d="M156.661,150a4.661,4.661,0,1,0,4.661,4.661A4.667,4.667,0,0,0,156.661,150Zm0,0" transform="translate(-145.253 -143.342)" fill="#acacbe"/></svg>