<svg xmlns="http://www.w3.org/2000/svg" width="16.137" height="16.065" viewBox="0 0 16.137 16.065"><path d="M15.672,12.6,13.34,10.27a1.662,1.662,0,0,0-1.181-.483,1.743,1.743,0,0,0-1.24.517l-.908.908a11.055,11.055,0,0,1-2.617-1.9A11.062,11.062,0,0,1,5.489,6.689L6.4,5.781A1.715,1.715,0,0,0,6.428,3.36L4.1,1.028A1.655,1.655,0,0,0,2.915.542a1.745,1.745,0,0,0-1.218.5A4.994,4.994,0,0,0,.117,3.915C-.407,6.476.8,8.94,4.276,12.42c3.886,3.885,7.2,4.187,8.127,4.187a3.071,3.071,0,0,0,.339-.015,3.849,3.849,0,0,0,2.935-1.6A1.766,1.766,0,0,0,15.672,12.6ZM14.9,14.358A2.849,2.849,0,0,1,12.626,15.6a2.23,2.23,0,0,1-.223.009c-.827,0-3.806-.281-7.419-3.893C1.776,8.5.651,6.3,1.1,4.116a3.939,3.939,0,0,1,1.228-2.3l.03-.022.026-.026a.752.752,0,0,1,.533-.224.661.661,0,0,1,.473.192L5.72,4.068a.713.713,0,0,1-.031,1.005L4.661,6.1l-.017.018a.82.82,0,0,0-.089.953,12.165,12.165,0,0,0,2.131,2.943A12.15,12.15,0,0,0,9.621,12.14a.905.905,0,0,0,.433.115.8.8,0,0,0,.608-.28l.964-.964a.748.748,0,0,1,.532-.223.666.666,0,0,1,.474.191l2.331,2.332A.788.788,0,0,1,14.9,14.358Z" transform="translate(0 -0.542)" fill="#000002"/></svg>