<svg xmlns="http://www.w3.org/2000/svg" width="20.797" height="22.729" viewBox="0 0 20.797 22.729"><g transform="translate(-0.499 0)"><path d="M109.175,158.273a.666.666,0,0,1-.942,0l-3.026-3.026a.666.666,0,0,1,0-.942l.538-.538-1.58-1.58-1.294,1.294a1.119,1.119,0,0,0,0,1.58l5.547,5.548a1.123,1.123,0,0,0,1.58,0l1.294-1.294-1.58-1.58Zm0,0" transform="translate(-97.515 -145.432)" fill="#acacbe"/><path d="M21.3,8.022A8.044,8.044,0,0,0,13.275,0H8.521A8.043,8.043,0,0,0,.5,8.022v3.736a7.951,7.951,0,0,0,1.458,4.6,8.051,8.051,0,0,0,3.294,2.722v2.146c0,1.11.621,1.5,1.153,1.5a1.626,1.626,0,0,0,1.13-.558L9.926,19.78h3.349A8.044,8.044,0,0,0,21.3,11.758Zm-6.106,6.332-1.765,1.765a2.455,2.455,0,0,1-3.463,0L4.414,10.571a2.452,2.452,0,0,1,0-3.463L6.18,5.343a.666.666,0,0,1,.942,0L9.643,7.865a.666.666,0,0,1,0,.942L9.1,9.344l2.084,2.084.538-.538a.666.666,0,0,1,.942,0l2.522,2.522a.666.666,0,0,1,0,.942Zm-4.8-7.89A.666.666,0,0,1,11.06,5.8a4.189,4.189,0,0,1,4.184,4.184.666.666,0,1,1-1.332,0A2.856,2.856,0,0,0,11.06,7.13.666.666,0,0,1,10.394,6.464Zm7.037,4.184a.666.666,0,0,1-.666-.666,5.705,5.705,0,0,0-5.705-5.706.666.666,0,1,1,0-1.332A7.037,7.037,0,0,1,18.1,9.983a.666.666,0,0,1-.666.666Zm0,0" transform="translate(0 0)" fill="#acacbe"/></g></svg>